<svg xmlns="http://www.w3.org/2000/svg" xmlns:xlink="http://www.w3.org/1999/xlink" viewBox="0 0 289.949 139">
  <defs>
    <style>
      .cls-1 {
        fill: #3497fd;
      }

      .cls-2, .cls-3 {
        fill: #fff;
        font-family: SegoeUI, Segoe UI;
      }

      .cls-2 {
        font-size: 48px;
        letter-spacing: 0.001em;
        text-decoration: underline;
      }

      .cls-3 {
        font-size: 13px;
        opacity: 0.56;
      }

      .cls-4 {
        filter: url(#PISARA);
      }

      .cls-5 {
        filter: url(#bg);
      }
    </style>
    <filter id="bg" x="0" y="0" width="289.949" height="139" filterUnits="userSpaceOnUse">
      <feOffset dy="4" input="SourceAlpha"/>
      <feGaussianBlur stdDeviation="8" result="blur"/>
      <feFlood flood-color="#455b63" flood-opacity="0.078"/>
      <feComposite operator="in" in2="blur"/>
      <feComposite in="SourceGraphic"/>
    </filter>
    <filter id="PISARA" x="62.06" y="24" width="175" height="82" filterUnits="userSpaceOnUse">
      <feOffset dy="3" input="SourceAlpha"/>
      <feGaussianBlur stdDeviation="3" result="blur-2"/>
      <feFlood flood-opacity="0.161"/>
      <feComposite operator="in" in2="blur-2"/>
      <feComposite in="SourceGraphic"/>
    </filter>
  </defs>
  <g id="card" transform="translate(-15 -519)">
    <g class="cls-5" transform="matrix(1, 0, 0, 1, 15, 519)">
      <rect id="bg-2" data-name="bg" class="cls-1" width="241.949" height="91" rx="12" transform="translate(24 20)"/>
    </g>
    <g id="graduation-cap-outline" transform="matrix(0.946, -0.326, 0.326, 0.946, 60.391, 553.928)">
      <path id="Path_791" data-name="Path 791" d="M40.042,7.968,44.3,6.336,22.461-.241-.077,7.492,8.315,10.21,8.185,22.8l.169.285c.132.223,3.363,5.463,13.907,5.35,10.715-.115,12.817-5.625,12.9-5.86l.069-.194.13-12.622,2.26-.866-.163,15.75-1.329.014-.058,5.647,5.074-.055.058-5.647-1.328.014.172-16.653ZM32.82,21.946c-.406.774-2.575,3.989-10.535,4.074-7.925.085-10.97-3.057-11.68-3.962l.114-11.069,11.622,3.766,10.594-4.061Zm-10.5-9.754L7.557,7.41,22.461,2.3,36.84,6.628Z" transform="matrix(0.996, 0.087, -0.087, 0.996, 2.577, -0.036)"/>
    </g>
    <g id="open-book" transform="translate(53.226 575.938)">
      <g id="Group_750" data-name="Group 750" transform="translate(0)">
        <g id="Group_749" data-name="Group 749" transform="translate(0 0)">
          <path id="Path_792" data-name="Path 792" d="M290.178,198.817a.447.447,0,0,0,.4.255.43.43,0,0,0,.2-.051,37.533,37.533,0,0,1,3.957-1.841.472.472,0,0,0,.291-.587.443.443,0,0,0-.561-.305,37.549,37.549,0,0,0-4.093,1.9A.478.478,0,0,0,290.178,198.817Z" transform="translate(-274.926 -185.509)"/>
          <path id="Path_793" data-name="Path 793" d="M290.578,96.674a.43.43,0,0,0,.2-.051,37.532,37.532,0,0,1,3.957-1.841.472.472,0,0,0,.291-.587.443.443,0,0,0-.561-.305,37.541,37.541,0,0,0-4.093,1.9.478.478,0,0,0-.2.629A.447.447,0,0,0,290.578,96.674Z" transform="translate(-274.926 -88.723)"/>
          <path id="Path_794" data-name="Path 794" d="M26.385,7.016a.458.458,0,0,0-.447.468v18.24a1.375,1.375,0,0,1-1.342,1.4H13.864V26.05a12.673,12.673,0,0,1,4.025-.795,22.136,22.136,0,0,1,6.567.912.434.434,0,0,0,.4-.065.474.474,0,0,0,.186-.379V5.145a.463.463,0,0,0-.35-.456s-.351-.082-.95-.2a.45.45,0,0,0-.521.375.467.467,0,0,0,.359.545c.229.044.42.083.567.114V25.1a24.21,24.21,0,0,0-6.26-.782,13.516,13.516,0,0,0-4.454.9,10.094,10.094,0,0,0-4.042-.9,28.88,28.88,0,0,0-6.708.8V5.507a28.215,28.215,0,0,1,6.708-.83,9.337,9.337,0,0,1,3.577.771v18.4a.472.472,0,0,0,.227.407.43.43,0,0,0,.451-.006,50.278,50.278,0,0,1,8.407-4.166.466.466,0,0,0,.306-.444V.468a.474.474,0,0,0-.193-.384A.43.43,0,0,0,21.756.03a46.825,46.825,0,0,0-7.234,3.783.481.481,0,0,0-.142.644A.436.436,0,0,0,15,4.606a47.086,47.086,0,0,1,6.471-3.454V19.309a49.164,49.164,0,0,0-7.6,3.732V5.145a.471.471,0,0,0-.247-.419,9.992,9.992,0,0,0-4.224-.985A27.837,27.837,0,0,0,2.115,4.7a.465.465,0,0,0-.324.449V25.724a.477.477,0,0,0,.178.373.434.434,0,0,0,.27.094.423.423,0,0,0,.123-.018,27.551,27.551,0,0,1,7.032-.917,9.317,9.317,0,0,1,3.577.771v1.1H2.238A1.375,1.375,0,0,1,.9,25.724V7.483a.458.458,0,0,0-.447-.468A.458.458,0,0,0,0,7.483v18.24a2.292,2.292,0,0,0,2.236,2.338H24.6a2.292,2.292,0,0,0,2.236-2.338V7.483A.458.458,0,0,0,26.385,7.016Z" transform="translate(-0.002 0)"/>
          <path id="Path_795" data-name="Path 795" d="M290.178,147.617a.447.447,0,0,0,.4.255.431.431,0,0,0,.2-.051,37.53,37.53,0,0,1,3.957-1.841.472.472,0,0,0,.291-.587.443.443,0,0,0-.561-.305,37.549,37.549,0,0,0-4.093,1.9A.478.478,0,0,0,290.178,147.617Z" transform="translate(-274.926 -137.115)"/>
          <path id="Path_796" data-name="Path 796" d="M290.178,250.017a.447.447,0,0,0,.4.255.43.43,0,0,0,.2-.051,37.536,37.536,0,0,1,3.957-1.841.472.472,0,0,0,.291-.587.443.443,0,0,0-.561-.305,37.545,37.545,0,0,0-4.093,1.9A.478.478,0,0,0,290.178,250.017Z" transform="translate(-274.926 -233.903)"/>
          <path id="Path_797" data-name="Path 797" d="M91.7,153.9a13.591,13.591,0,0,0-6.031.223.47.47,0,0,0-.316.573.451.451,0,0,0,.432.347.436.436,0,0,0,.116-.016,12.905,12.905,0,0,1,5.6-.216.448.448,0,0,0,.537-.349A.469.469,0,0,0,91.7,153.9Z" transform="translate(-80.862 -145.224)"/>
          <path id="Path_798" data-name="Path 798" d="M91.7,205.107a13.6,13.6,0,0,0-6.031.223.47.47,0,0,0-.316.573.451.451,0,0,0,.432.347.436.436,0,0,0,.116-.016,12.905,12.905,0,0,1,5.6-.216.448.448,0,0,0,.537-.349A.469.469,0,0,0,91.7,205.107Z" transform="translate(-80.862 -193.621)"/>
          <path id="Path_799" data-name="Path 799" d="M290.178,301.217a.447.447,0,0,0,.4.255.431.431,0,0,0,.2-.051,37.533,37.533,0,0,1,3.957-1.841.472.472,0,0,0,.291-.587.443.443,0,0,0-.561-.305,37.542,37.542,0,0,0-4.093,1.9A.478.478,0,0,0,290.178,301.217Z" transform="translate(-274.926 -282.297)"/>
          <path id="Path_800" data-name="Path 800" d="M91.7,256.306a13.59,13.59,0,0,0-6.031.223.47.47,0,0,0-.316.573.451.451,0,0,0,.432.347.434.434,0,0,0,.116-.016,12.9,12.9,0,0,1,5.6-.216.448.448,0,0,0,.537-.349A.469.469,0,0,0,91.7,256.306Z" transform="translate(-80.862 -242.013)"/>
          <path id="Path_801" data-name="Path 801" d="M91.7,358.7a13.591,13.591,0,0,0-6.031.223.47.47,0,0,0-.316.573.451.451,0,0,0,.432.347.434.434,0,0,0,.116-.016,12.9,12.9,0,0,1,5.6-.216.448.448,0,0,0,.537-.349A.469.469,0,0,0,91.7,358.7Z" transform="translate(-80.862 -338.799)"/>
          <path id="Path_802" data-name="Path 802" d="M91.7,307.5a13.583,13.583,0,0,0-6.031.223.47.47,0,0,0-.316.573.451.451,0,0,0,.432.347.434.434,0,0,0,.116-.016,12.9,12.9,0,0,1,5.6-.216.448.448,0,0,0,.537-.349A.469.469,0,0,0,91.7,307.5Z" transform="translate(-80.862 -290.404)"/>
        </g>
      </g>
    </g>
    <g id="num" transform="translate(80.06 551)">
      <g class="cls-4" transform="matrix(1, 0, 0, 1, -65.06, -32)">
        <text id="PISARA-2" data-name="PISARA" class="cls-2" transform="translate(71.06 82)"><tspan x="0" y="0">PISARA</tspan></text>
      </g>
      <text id="E-LEARNING" class="cls-3" transform="translate(5.781 73)"><tspan x="0" y="0">E-LEARNING</tspan></text>
    </g>
  </g>
</svg>
